<svg xmlns="http://www.w3.org/2000/svg" xmlns:xlink="http://www.w3.org/1999/xlink" width="811" height="468" viewBox="0 0 811 468"><defs><style>.a,.g,.i{fill:none;}.a{stroke:#f4f4f4;stroke-width:80px;stroke-dasharray:2.5;}.b{fill:#f4f4f4;}.c{opacity:0;}.d{fill:#d90b2c;}.e,.f{fill:#fff;}.f{font-size:18px;font-family:TTNormsPro-Bold, TT Norms Pro;font-weight:700;}.g{stroke:#d5d5d5;stroke-dasharray:5;}.h{stroke:none;}.j{filter:url(#a);}</style><filter id="a" x="0" y="1" width="225" height="467" filterUnits="userSpaceOnUse"><feOffset dy="3" input="SourceAlpha"/><feGaussianBlur stdDeviation="25" result="b"/><feFlood flood-opacity="0.102"/><feComposite operator="in" in2="b"/><feComposite in="SourceGraphic"/></filter></defs><g transform="translate(16 -272)"><g transform="translate(78 108)"><g class="a" transform="translate(124 164)"><circle class="h" cx="216" cy="216" r="216"/><circle class="i" cx="216" cy="216" r="176"/></g><g transform="translate(-17)"><circle class="b" cx="2.5" cy="2.5" r="2.5" transform="translate(550 186)"/><circle class="b" cx="2.5" cy="2.5" r="2.5" transform="translate(562 186)"/><circle class="b" cx="2.5" cy="2.5" r="2.5" transform="translate(574 186)"/><circle class="b" cx="2.5" cy="2.5" r="2.5" transform="translate(586 186)"/><circle class="b" cx="2.5" cy="2.5" r="2.5" transform="translate(598 186)"/><circle class="b" cx="2.5" cy="2.5" r="2.5" transform="translate(610 186)"/><circle class="b" cx="2.5" cy="2.5" r="2.5" transform="translate(622 186)"/><circle class="b" cx="2.5" cy="2.5" r="2.5" transform="translate(634 186)"/><circle class="b" cx="2.5" cy="2.5" r="2.5" transform="translate(550 196)"/><circle class="b" cx="2.5" cy="2.5" r="2.5" transform="translate(562 196)"/><circle class="b" cx="2.5" cy="2.5" r="2.5" transform="translate(574 196)"/><circle class="b" cx="2.5" cy="2.5" r="2.5" transform="translate(586 196)"/><circle class="b" cx="2.5" cy="2.5" r="2.5" transform="translate(598 196)"/><circle class="b" cx="2.5" cy="2.5" r="2.5" transform="translate(610 196)"/><circle class="b" cx="2.5" cy="2.5" r="2.5" transform="translate(622 196)"/><circle class="b" cx="2.5" cy="2.5" r="2.5" transform="translate(634 196)"/><circle class="b" cx="2.5" cy="2.5" r="2.5" transform="translate(550 206)"/><circle class="b" cx="2.5" cy="2.5" r="2.5" transform="translate(562 206)"/><circle class="b" cx="2.5" cy="2.5" r="2.5" transform="translate(574 206)"/><circle class="b" cx="2.5" cy="2.5" r="2.5" transform="translate(586 206)"/><circle class="b" cx="2.5" cy="2.5" r="2.5" transform="translate(598 206)"/><circle class="b" cx="2.5" cy="2.5" r="2.5" transform="translate(610 206)"/><circle class="b" cx="2.5" cy="2.5" r="2.5" transform="translate(622 206)"/><circle class="b" cx="2.5" cy="2.5" r="2.5" transform="translate(634 206)"/><circle class="b" cx="2.5" cy="2.5" r="2.5" transform="translate(550 216)"/><circle class="b" cx="2.5" cy="2.5" r="2.5" transform="translate(562 216)"/><circle class="b" cx="2.5" cy="2.5" r="2.5" transform="translate(574 216)"/><circle class="b" cx="2.5" cy="2.5" r="2.5" transform="translate(586 216)"/><circle class="b" cx="2.5" cy="2.5" r="2.5" transform="translate(598 216)"/><circle class="b" cx="2.5" cy="2.5" r="2.5" transform="translate(610 216)"/><circle class="b" cx="2.5" cy="2.5" r="2.5" transform="translate(622 216)"/><circle class="b" cx="2.5" cy="2.5" r="2.5" transform="translate(634 216)"/><circle class="b" cx="2.5" cy="2.5" r="2.5" transform="translate(550 226)"/><circle class="b" cx="2.5" cy="2.5" r="2.5" transform="translate(562 226)"/><circle class="b" cx="2.5" cy="2.5" r="2.5" transform="translate(574 226)"/><circle class="b" cx="2.5" cy="2.5" r="2.5" transform="translate(586 226)"/><circle class="b" cx="2.5" cy="2.5" r="2.5" transform="translate(598 226)"/><circle class="b" cx="2.5" cy="2.5" r="2.5" transform="translate(610 226)"/><circle class="b" cx="2.5" cy="2.5" r="2.5" transform="translate(622 226)"/><circle class="b" cx="2.5" cy="2.5" r="2.5" transform="translate(634 226)"/><circle class="b" cx="2.5" cy="2.5" r="2.5" transform="translate(550 236)"/><circle class="b" cx="2.5" cy="2.5" r="2.5" transform="translate(562 236)"/><circle class="b" cx="2.5" cy="2.5" r="2.5" transform="translate(574 236)"/><circle class="b" cx="2.5" cy="2.5" r="2.5" transform="translate(586 236)"/><circle class="b" cx="2.5" cy="2.5" r="2.5" transform="translate(598 236)"/><circle class="b" cx="2.5" cy="2.5" r="2.5" transform="translate(610 236)"/><circle class="b" cx="2.5" cy="2.5" r="2.5" transform="translate(622 236)"/><circle class="b" cx="2.5" cy="2.5" r="2.5" transform="translate(634 236)"/><circle class="b" cx="2.5" cy="2.5" r="2.5" transform="translate(550 246)"/><circle class="b" cx="2.5" cy="2.5" r="2.5" transform="translate(562 246)"/><circle class="b" cx="2.5" cy="2.5" r="2.5" transform="translate(574 246)"/><circle class="b" cx="2.5" cy="2.5" r="2.5" transform="translate(586 246)"/><circle class="b" cx="2.5" cy="2.5" r="2.5" transform="translate(598 246)"/><circle class="b" cx="2.5" cy="2.5" r="2.5" transform="translate(610 246)"/><circle class="b" cx="2.5" cy="2.5" r="2.5" transform="translate(622 246)"/><circle class="b" cx="2.5" cy="2.5" r="2.5" transform="translate(634 246)"/><circle class="b" cx="2.5" cy="2.5" r="2.5" transform="translate(550 256)"/><circle class="b" cx="2.5" cy="2.5" r="2.5" transform="translate(562 256)"/><circle class="b" cx="2.5" cy="2.5" r="2.5" transform="translate(574 256)"/><circle class="b" cx="2.5" cy="2.5" r="2.5" transform="translate(586 256)"/><circle class="b" cx="2.5" cy="2.5" r="2.5" transform="translate(598 256)"/><circle class="b" cx="2.5" cy="2.5" r="2.5" transform="translate(610 256)"/><circle class="b" cx="2.5" cy="2.5" r="2.5" transform="translate(622 256)"/><circle class="b" cx="2.5" cy="2.5" r="2.5" transform="translate(634 256)"/></g><g transform="translate(78)"><circle class="b" cx="2.5" cy="2.5" r="2.5" transform="translate(550 186)"/><circle class="b" cx="2.5" cy="2.5" r="2.5" transform="translate(562 186)"/><circle class="b" cx="2.5" cy="2.5" r="2.5" transform="translate(574 186)"/><circle class="b" cx="2.5" cy="2.5" r="2.5" transform="translate(586 186)"/><circle class="b" cx="2.5" cy="2.5" r="2.5" transform="translate(598 186)"/><circle class="b" cx="2.5" cy="2.5" r="2.5" transform="translate(610 186)"/><circle class="b" cx="2.5" cy="2.5" r="2.5" transform="translate(622 186)"/><circle class="b" cx="2.5" cy="2.5" r="2.5" transform="translate(634 186)"/><circle class="b" cx="2.5" cy="2.5" r="2.5" transform="translate(550 196)"/><circle class="b" cx="2.5" cy="2.5" r="2.5" transform="translate(562 196)"/><circle class="b" cx="2.5" cy="2.5" r="2.5" transform="translate(574 196)"/><circle class="b" cx="2.5" cy="2.5" r="2.5" transform="translate(586 196)"/><circle class="b" cx="2.5" cy="2.5" r="2.5" transform="translate(598 196)"/><circle class="b" cx="2.5" cy="2.5" r="2.5" transform="translate(610 196)"/><circle class="b" cx="2.5" cy="2.5" r="2.5" transform="translate(622 196)"/><circle class="b" cx="2.5" cy="2.5" r="2.5" transform="translate(634 196)"/><circle class="b" cx="2.5" cy="2.5" r="2.5" transform="translate(550 206)"/><circle class="b" cx="2.5" cy="2.5" r="2.5" transform="translate(562 206)"/><circle class="b" cx="2.5" cy="2.5" r="2.5" transform="translate(574 206)"/><circle class="b" cx="2.5" cy="2.5" r="2.5" transform="translate(586 206)"/><circle class="b" cx="2.5" cy="2.5" r="2.5" transform="translate(598 206)"/><circle class="b" cx="2.5" cy="2.5" r="2.5" transform="translate(610 206)"/><circle class="b" cx="2.5" cy="2.5" r="2.5" transform="translate(622 206)"/><circle class="b" cx="2.5" cy="2.5" r="2.5" transform="translate(634 206)"/><circle class="b" cx="2.5" cy="2.5" r="2.5" transform="translate(550 216)"/><circle class="b" cx="2.5" cy="2.5" r="2.5" transform="translate(562 216)"/><circle class="b" cx="2.5" cy="2.5" r="2.5" transform="translate(574 216)"/><circle class="b" cx="2.5" cy="2.5" r="2.5" transform="translate(586 216)"/><circle class="b" cx="2.5" cy="2.5" r="2.5" transform="translate(598 216)"/><circle class="b" cx="2.5" cy="2.5" r="2.5" transform="translate(610 216)"/><circle class="b" cx="2.5" cy="2.5" r="2.5" transform="translate(622 216)"/><circle class="b" cx="2.5" cy="2.5" r="2.5" transform="translate(634 216)"/><circle class="b" cx="2.5" cy="2.5" r="2.5" transform="translate(550 226)"/><circle class="b" cx="2.5" cy="2.5" r="2.5" transform="translate(562 226)"/><circle class="b" cx="2.5" cy="2.5" r="2.5" transform="translate(574 226)"/><circle class="b" cx="2.5" cy="2.5" r="2.5" transform="translate(586 226)"/><circle class="b" cx="2.5" cy="2.5" r="2.5" transform="translate(598 226)"/><circle class="b" cx="2.5" cy="2.5" r="2.5" transform="translate(610 226)"/><circle class="b" cx="2.5" cy="2.5" r="2.5" transform="translate(622 226)"/><circle class="b" cx="2.5" cy="2.5" r="2.5" transform="translate(634 226)"/><circle class="b" cx="2.5" cy="2.5" r="2.5" transform="translate(550 236)"/><circle class="b" cx="2.5" cy="2.5" r="2.5" transform="translate(562 236)"/><circle class="b" cx="2.5" cy="2.5" r="2.5" transform="translate(574 236)"/><circle class="b" cx="2.5" cy="2.5" r="2.5" transform="translate(586 236)"/><circle class="b" cx="2.5" cy="2.5" r="2.5" transform="translate(598 236)"/><circle class="b" cx="2.5" cy="2.5" r="2.5" transform="translate(610 236)"/><circle class="b" cx="2.5" cy="2.5" r="2.5" transform="translate(622 236)"/><circle class="b" cx="2.5" cy="2.5" r="2.5" transform="translate(634 236)"/><circle class="b" cx="2.5" cy="2.5" r="2.5" transform="translate(550 246)"/><circle class="b" cx="2.5" cy="2.5" r="2.5" transform="translate(562 246)"/><circle class="b" cx="2.5" cy="2.5" r="2.5" transform="translate(574 246)"/><circle class="b" cx="2.5" cy="2.5" r="2.5" transform="translate(586 246)"/><circle class="b" cx="2.5" cy="2.5" r="2.5" transform="translate(598 246)"/><circle class="b" cx="2.5" cy="2.5" r="2.5" transform="translate(610 246)"/><circle class="b" cx="2.5" cy="2.5" r="2.5" transform="translate(622 246)"/><circle class="b" cx="2.5" cy="2.5" r="2.5" transform="translate(634 246)"/><circle class="b" cx="2.5" cy="2.5" r="2.5" transform="translate(550 256)"/><circle class="b" cx="2.5" cy="2.5" r="2.5" transform="translate(562 256)"/><circle class="b" cx="2.5" cy="2.5" r="2.5" transform="translate(574 256)"/><circle class="b" cx="2.5" cy="2.5" r="2.5" transform="translate(586 256)"/><circle class="b" cx="2.5" cy="2.5" r="2.5" transform="translate(598 256)"/><circle class="b" cx="2.5" cy="2.5" r="2.5" transform="translate(610 256)"/><circle class="b" cx="2.5" cy="2.5" r="2.5" transform="translate(622 256)"/><circle class="b" cx="2.5" cy="2.5" r="2.5" transform="translate(634 256)"/></g></g><g class="c" transform="translate(628 -878) rotate(90)"><g class="j" transform="matrix(0, -1, 1, 0, 1150, 644)"><rect class="d" width="317" height="75" rx="37.5" transform="translate(150 73) rotate(90)"/></g><g transform="translate(1247.408 546.298) rotate(-90)"><path class="e" d="M15.163,2.477A1.777,1.777,0,1,0,16.94,4.254,1.779,1.779,0,0,0,15.163,2.477Zm0,2.665a.888.888,0,1,1,.888-.888A.889.889,0,0,1,15.163,5.142Zm15.162,2.1a.447.447,0,0,0-.273-.4L15.577.544a1.039,1.039,0,0,0-.828,0L.274,6.835A.449.449,0,0,0,0,7.251V8.7A1.631,1.631,0,0,0,1.63,10.332h.35a1.684,1.684,0,0,0,1.871,2.441V25.438a.957.957,0,0,0-1.125.918V27.2H1.63A1.631,1.631,0,0,0,0,28.826v1.162a.741.741,0,0,0,.74.74H29.585a.741.741,0,0,0,.74-.74V28.826A1.631,1.631,0,0,0,28.7,27.2H27.6v-.842a.954.954,0,0,0-1.125-.918V12.773a1.686,1.686,0,0,0,1.871-2.441h.35A1.631,1.631,0,0,0,30.326,8.7V7.251s0,0,0-.013ZM3.466,11.931a.8.8,0,0,1,0-1.6h4.8a.8.8,0,1,1-.785.957.444.444,0,1,0-.872.172,1.675,1.675,0,0,0,.382.778v7.668a.444.444,0,1,0,.888,0V12.773a1.686,1.686,0,0,0,1.871-2.441h1.529a1.684,1.684,0,0,0,1.871,2.441V25.438a.957.957,0,0,0-1.125.918V27.2H9v-.842a.954.954,0,0,0-1.125-.918V21.979a.444.444,0,1,0-.888,0v3.458H4.739v-13.2a1.674,1.674,0,0,0,.382-.778.444.444,0,1,0-.872-.172.8.8,0,0,1-.784.642Zm15.583-1.6h1.529a1.684,1.684,0,0,0,1.871,2.441V25.438a.957.957,0,0,0-1.125.918V27.2H18.3v-.842a.954.954,0,0,0-1.125-.918V12.773a1.686,1.686,0,0,0,1.871-2.441ZM17.414,26.356V27.2h-4.5v-.842a.03.03,0,0,1,.03-.03h4.442A.03.03,0,0,1,17.414,26.356Zm.148-14.425a.8.8,0,0,1-.784-.642.444.444,0,0,0-.872.172,1.675,1.675,0,0,0,.382.778v13.2H14.038v-13.2a1.674,1.674,0,0,0,.382-.778.444.444,0,1,0-.872-.172.8.8,0,1,1-.785-.957h4.8a.8.8,0,0,1,0,1.6ZM3.614,26.356a.03.03,0,0,1,.03-.03H8.085a.03.03,0,0,1,.03.03V27.2h-4.5ZM28.7,28.086a.741.741,0,0,1,.74.74V29.84H.889V28.826a.741.741,0,0,1,.74-.74Zm-2.014-1.76a.03.03,0,0,1,.03.03V27.2h-4.5v-.842a.03.03,0,0,1,.03-.03Zm.178-14.4a.8.8,0,0,1-.784-.642.444.444,0,1,0-.872.172,1.675,1.675,0,0,0,.382.778v13.2H23.337v-13.2a1.674,1.674,0,0,0,.382-.778.444.444,0,0,0-.872-.172.8.8,0,1,1-.785-.957h4.8a.8.8,0,0,1,0,1.6ZM29.437,8.7a.741.741,0,0,1-.74.74H1.63a.741.741,0,0,1-.74-.74V7.689H21.63a.444.444,0,1,0,0-.888H2.582L15.1,1.359a.149.149,0,0,1,.119,0L27.745,6.8H23.7a.444.444,0,0,0,0,.888h5.734V8.7Z"/></g><text class="f" transform="translate(1295 538)"><tspan x="0" y="0">Stock and Commodities</tspan></text><circle class="e" cx="7" cy="7" r="7" transform="translate(1511 525)"/></g><line class="g" x2="718" transform="translate(76.5 540.5)"/></g></svg>