<svg xmlns="http://www.w3.org/2000/svg" width="35.885" height="34.809" viewBox="0 0 35.885 34.809"><defs><style>.a{fill:#a4afc1;}.b{fill:#f3f3f1;}.c{fill:#2fdf84;}.d{fill:#00b871;}.e{fill:#d5dbe1;}.f{fill:#092032;}</style></defs><g transform="translate(-6.18 -6.923)"><path class="a" d="M7.153,9.306A2.153,2.153,0,1,1,9.306,7.153,2.156,2.156,0,0,1,7.153,9.306Zm0-2.871a.718.718,0,1,0,.718.718A.718.718,0,0,0,7.153,6.435Z" transform="translate(1.18 1.923)"/><path class="b" d="M32.125,24.028A13.276,13.276,0,0,1,9.46,33.415l9.388-9.388V10.75A13.294,13.294,0,0,1,32.125,24.028Z" transform="translate(3.122 4.427)"/><path class="c" d="M20.028,10.75V24.028L10.64,33.415A13.276,13.276,0,0,1,20.028,10.75Z" transform="translate(1.942 4.427)"/><path class="c" d="M33.822,8.185v6.459a1.44,1.44,0,0,1-1.435,1.435H27.721l-4.665,4.306V16.08H20.185a1.44,1.44,0,0,1-1.435-1.435V8.185A1.44,1.44,0,0,1,20.185,6.75h12.2A1.44,1.44,0,0,1,33.822,8.185Z" transform="translate(7.167 2.685)"/><path class="d" d="M9.98,24.028A13.292,13.292,0,0,1,20.028,11.163V10.75A13.276,13.276,0,0,0,10.64,33.415L12.4,31.651A13.207,13.207,0,0,1,9.98,24.028Z" transform="translate(1.942 4.427)"/><path class="d" d="M21.98,14.645V8.185A1.44,1.44,0,0,1,23.415,6.75h-3.23A1.44,1.44,0,0,0,18.75,8.185v6.459a1.44,1.44,0,0,0,1.435,1.435h2.871S21.98,15.434,21.98,14.645Z" transform="translate(7.167 2.685)"/><path class="e" d="M12.69,33.415l9.388-9.388V11.163a13.248,13.248,0,0,0-3.23-.413V24.028L9.46,33.415a13.284,13.284,0,0,0,9.388,3.89,13.061,13.061,0,0,0,1.616-.109,13.3,13.3,0,0,1-7.774-3.781Z" transform="translate(3.122 4.427)"/><path class="f" d="M23.383,21.79a1.076,1.076,0,0,1-1.077-1.077v-3.23H20.512A2.515,2.515,0,0,1,18,14.971V8.512A2.515,2.515,0,0,1,20.512,6h12.2a2.515,2.515,0,0,1,2.512,2.512v6.459a2.515,2.515,0,0,1-2.512,2.512H28.469L24.112,21.5A1.069,1.069,0,0,1,23.383,21.79ZM20.512,8.153a.363.363,0,0,0-.359.359v6.459a.363.363,0,0,0,.359.359h2.871a1.077,1.077,0,0,1,1.077,1.077v1.847l2.858-2.638a1.08,1.08,0,0,1,.731-.286h4.665a.363.363,0,0,0,.359-.359V8.512a.363.363,0,0,0-.359-.359Z" transform="translate(6.84 2.359)"/><path class="f" d="M10.49,33.252,8.93,31.7l9.3-9.227V13.63h2.207v9.3a1.086,1.086,0,0,1-.324.774Z" transform="translate(2.61 5.681)"/></g></svg>