<svg xmlns="http://www.w3.org/2000/svg" width="38.885" height="40.323" viewBox="0 0 38.885 40.323"><defs><style>.a{fill:#a4afc1;}.b{fill:#f3f3f1;}.c{fill:#2fdf84;}.d{fill:#00b871;}.e{fill:#d5dbe1;}.f{fill:#092032;}</style></defs><g transform="translate(-7.616 -2.487)"><g transform="translate(37.621 2.487)"><path class="a" d="M0,0H1.435V2.871H0Z" transform="translate(0 1.015) rotate(-45)"/><path class="a" d="M0,0H1.435V2.871H0Z" transform="translate(5.836 6.851) rotate(-45)"/><path class="a" d="M0,0H2.871V1.435H0Z" transform="translate(5.583 2.03) rotate(-45)"/></g><path class="b" d="M6.75,25.157h32.3V17.621a2.87,2.87,0,0,0-2.871-2.871H9.621A2.87,2.87,0,0,0,6.75,17.621Z" transform="translate(1.942 6.169)"/><path class="b" d="M9.621,32.407H36.177a2.87,2.87,0,0,0,2.871-2.871V22H6.75v7.536A2.87,2.87,0,0,0,9.621,32.407Z" transform="translate(1.942 9.326)"/><path class="c" d="M36.177,18.234H9.621A2.87,2.87,0,0,1,6.75,15.363V9.621A2.87,2.87,0,0,1,9.621,6.75H36.177a2.87,2.87,0,0,1,2.871,2.871v5.742A2.87,2.87,0,0,1,36.177,18.234Z" transform="translate(1.942 2.685)"/><path class="d" d="M9.98,15.363V9.621A2.87,2.87,0,0,1,12.851,6.75H9.621A2.87,2.87,0,0,0,6.75,9.621v5.742a2.87,2.87,0,0,0,2.871,2.871h3.23A2.87,2.87,0,0,1,9.98,15.363Z" transform="translate(1.942 2.685)"/><path class="e" d="M12.851,14.75H9.621A2.87,2.87,0,0,0,6.75,17.621v7.536H9.98V17.621A2.87,2.87,0,0,1,12.851,14.75Z" transform="translate(1.942 6.169)"/><path class="e" d="M9.98,29.536V22H6.75v7.536a2.87,2.87,0,0,0,2.871,2.871h3.23A2.87,2.87,0,0,1,9.98,29.536Z" transform="translate(1.942 9.326)"/><path class="f" d="M36.5,36.967H9.948A3.951,3.951,0,0,1,6,33.02V17.948A3.951,3.951,0,0,1,9.948,14H36.5a3.951,3.951,0,0,1,3.948,3.948V33.02A3.951,3.951,0,0,1,36.5,36.967ZM9.948,16.153a1.8,1.8,0,0,0-1.794,1.794V33.02a1.8,1.8,0,0,0,1.794,1.794H36.5A1.8,1.8,0,0,0,38.3,33.02V17.948A1.8,1.8,0,0,0,36.5,16.153Z" transform="translate(1.616 5.842)"/><path class="f" d="M24.718,13.327a1.065,1.065,0,0,1-.626-.2L20.7,10.706l1.252-1.753,2.762,1.974,2.762-1.974,1.252,1.753-3.388,2.42a1.065,1.065,0,0,1-.626.2Z" transform="translate(8.019 3.644)"/><path class="f" d="M36.5,19.637H9.948A3.951,3.951,0,0,1,6,15.689V9.948A3.951,3.951,0,0,1,9.948,6H36.5a3.951,3.951,0,0,1,3.948,3.948v5.742A3.951,3.951,0,0,1,36.5,19.637ZM9.948,8.153A1.8,1.8,0,0,0,8.153,9.948v5.742a1.8,1.8,0,0,0,1.794,1.794H36.5A1.8,1.8,0,0,0,38.3,15.689V9.948A1.8,1.8,0,0,0,36.5,8.153Z" transform="translate(1.616 2.358)"/><path class="f" d="M17.5,6.75h2.153V18.234H17.5Z" transform="translate(6.623 2.685)"/><path class="f" d="M25.435,19.871a1.435,1.435,0,1,1,1.435-1.435A1.438,1.438,0,0,1,25.435,19.871Z" transform="translate(9.454 7.149)"/><path class="f" d="M25.435,27.871a1.435,1.435,0,1,1,1.435-1.435A1.438,1.438,0,0,1,25.435,27.871Z" transform="translate(9.454 10.632)"/><path class="f" d="M6.75,21.25h32.3V23.4H6.75Z" transform="translate(1.942 8.999)"/></g></svg>