<svg xmlns="http://www.w3.org/2000/svg" width="45.933" height="34.45" viewBox="0 0 45.933 34.45"><defs><style>.a{fill:#a4afc1;}.b{fill:#f3f3f1;}.c{fill:#2fdf84;}.d{fill:#d5dbe1;}.e{fill:#00b871;}.f{fill:#102738;}</style></defs><g transform="translate(-2 -8.359)"><path class="a" d="M32.153,26.306a2.153,2.153,0,1,1,2.153-2.153A2.156,2.156,0,0,1,32.153,26.306Zm0-2.871a.718.718,0,1,0,.718.718A.718.718,0,0,0,32.153,23.435Z" transform="translate(12.192 9.325)"/><path class="b" d="M8.75,13.75H31V28.822H8.75Z" transform="translate(2.939 5.733)"/><circle class="c" cx="8.254" cy="8.254" r="8.254" transform="translate(24.608 9.435)"/><path class="c" d="M27.564,10.75H8.185A1.44,1.44,0,0,0,6.75,12.185v1.435a1.44,1.44,0,0,0,1.435,1.435H27.564Z" transform="translate(2.068 4.427)"/><path class="d" d="M8.75,13.75h3.23V28.822H8.75Z" transform="translate(2.939 5.733)"/><path class="e" d="M20.98,15a8.254,8.254,0,0,1,6.639-8.093,8.254,8.254,0,1,0,0,16.186A8.254,8.254,0,0,1,20.98,15Z" transform="translate(6.858 2.685)"/><path class="e" d="M9.98,13.621V12.185a1.44,1.44,0,0,1,1.435-1.435H8.185A1.44,1.44,0,0,0,6.75,12.185v1.435a1.44,1.44,0,0,0,1.435,1.435h3.23A1.44,1.44,0,0,1,9.98,13.621Z" transform="translate(2.068 4.427)"/><path class="f" d="M26.33,24.66a9.33,9.33,0,1,1,9.33-9.33A9.341,9.341,0,0,1,26.33,24.66Zm0-16.507a7.177,7.177,0,1,0,7.177,7.177A7.185,7.185,0,0,0,26.33,8.153Z" transform="translate(6.531 2.359)"/><path class="f" d="M23.474,17.073a1.074,1.074,0,0,1-.7-.26L20.262,14.66l1.4-1.635,1.727,1.48L27.35,10.24l1.579,1.466L24.264,16.73a1.081,1.081,0,0,1-.789.343Z" transform="translate(7.952 4.205)"/><path class="f" d="M7,23.5H34.273v2.153H7Z" transform="translate(2.177 9.979)"/><path class="d" d="M22.927,32.306l-4.537-5.749L13.852,32.3,12.161,30.97l5.383-6.818a1.116,1.116,0,0,1,1.691,0l5.383,6.818Z" transform="translate(4.424 10.093)"/><path class="b" d="M2,28.5H47.933v2.153H2Z" transform="translate(0 12.156)"/><path class="f" d="M8,13.75h2.153V28.822H8Z" transform="translate(2.613 5.733)"/></g></svg>